<svg width="306" height="329" viewBox="0 0 306 329" fill="none" xmlns="http://www.w3.org/2000/svg">
<path d="M253.636 264.968C282.057 236.534 282.057 190.433 253.636 161.998C225.215 133.564 179.135 133.564 150.713 161.998C122.292 190.433 122.292 236.534 150.713 264.968C179.135 293.403 225.215 293.403 253.636 264.968Z" fill="#EBB044"/>
<path d="M201.643 126.008C184.35 126.119 167.478 131.358 153.16 141.062C138.843 150.766 127.723 164.5 121.206 180.526C114.69 196.553 113.071 214.153 116.552 231.1C120.033 248.048 128.459 263.582 140.765 275.739C153.071 287.896 168.703 296.129 185.685 299.398C202.668 302.666 220.238 300.824 236.173 294.103C252.109 287.381 265.695 276.084 275.213 261.638C284.731 247.193 289.754 230.248 289.647 212.946C289.575 201.457 287.242 190.093 282.781 179.506C278.32 168.918 271.817 159.313 263.645 151.24C255.473 143.167 245.791 136.783 235.153 132.454C224.515 128.124 213.128 125.934 201.643 126.008V126.008ZM202.618 286.333C188.222 286.422 174.123 282.238 162.104 274.311C150.085 266.383 140.685 255.068 135.094 241.796C129.504 228.524 127.972 213.891 130.694 199.748C133.416 185.605 140.269 172.587 150.386 162.341C160.503 152.095 173.43 145.08 187.532 142.184C201.634 139.288 216.278 140.641 229.611 146.072C242.945 151.503 254.369 160.768 262.439 172.694C270.509 184.621 274.863 198.674 274.95 213.077C275.058 232.381 267.499 250.938 253.935 264.668C240.371 278.398 221.913 286.177 202.618 286.295V286.333Z" fill="#F9CC5D"/>
<path d="M178.41 235.561C176.577 232.492 176.216 227.396 181.555 226.752C186.004 226.222 190.56 229.599 194.595 231.517C198.031 233.124 201.786 233.934 205.579 233.889C209.869 233.889 213.308 232.845 215.896 230.758C217.143 229.786 218.145 228.534 218.819 227.104C219.493 225.673 219.821 224.104 219.777 222.523C219.777 219.075 218.736 216.622 216.655 215.164C214.574 213.706 210.994 212.977 205.916 212.977H202.572C194.329 212.977 188.039 211.253 183.703 207.805C179.366 204.356 177.213 199.345 177.244 192.771C177.244 186.366 179.356 181.388 183.58 177.838C187.804 174.287 193.741 172.514 201.391 172.52C204.627 172.53 207.842 173.048 210.918 174.054C217.652 176.226 228.299 181.513 226.435 188.366C223.489 199.171 211.968 184.944 207.826 183.163C205.107 182.076 202.194 181.554 199.266 181.629C195.472 181.629 192.404 182.636 190.062 184.652C188.94 185.586 188.043 186.761 187.439 188.09C186.834 189.418 186.538 190.867 186.571 192.326C186.571 195.396 187.766 197.583 190.154 198.887C192.542 200.192 197.683 200.967 205.579 201.213C213.996 201.458 220.132 203.218 223.988 206.492C227.844 209.767 229.784 214.831 229.81 221.687C229.81 228.24 227.667 233.487 223.382 237.426C219.097 241.366 213.311 243.333 206.024 243.328C203.449 243.3 200.882 243.043 198.353 242.56C192.47 241.501 183.634 241.555 179.377 236.897C179.012 236.484 178.689 236.037 178.41 235.561V235.561Z" fill="#F9CC5D"/>
<path d="M203.677 260.564H203.562C201.054 260.564 199.014 258.208 199.014 255.299V165.513C199.014 162.605 201.054 160.249 203.562 160.249H203.654C206.17 160.249 208.203 162.605 208.203 165.513V255.299C208.226 258.208 206.193 260.564 203.677 260.564Z" fill="#F9CC5D"/>
<path d="M154.384 155.222C182.805 126.788 182.805 80.6867 154.384 52.2522C125.963 23.8178 79.8827 23.8178 51.4613 52.2522C23.04 80.6867 23.04 126.788 51.4614 155.222C79.8827 183.657 125.963 183.657 154.384 155.222Z" fill="#EBB044"/>
<path d="M102.396 16.2235C85.1037 16.3346 68.233 21.5724 53.9162 31.2749C39.5994 40.9773 28.4795 54.7088 21.9621 70.7332C15.4448 86.7576 13.8227 104.355 17.3009 121.302C20.7791 138.249 29.2015 153.783 41.5032 165.941C53.805 178.1 69.4337 186.336 86.4136 189.609C103.394 192.882 120.962 191.045 136.899 184.33C152.835 177.614 166.424 166.323 175.946 151.882C185.469 137.442 190.499 120.501 190.399 103.201C190.333 91.7075 188.003 80.3401 183.544 69.7479C179.085 59.1558 172.583 49.5465 164.411 41.4692C156.238 33.3919 146.555 27.0048 135.914 22.6731C125.273 18.3413 113.883 16.1497 102.396 16.2235V16.2235ZM103.37 176.549C88.9739 176.638 74.875 172.454 62.8559 164.527C50.8369 156.599 41.4375 145.284 35.8466 132.012C30.2557 118.739 28.7244 104.107 31.4462 89.9637C34.1681 75.8208 41.0209 62.803 51.1381 52.5567C61.2552 42.3104 74.1822 35.2958 88.2842 32.4C102.386 29.5041 117.03 30.8572 130.363 36.288C143.697 41.7188 155.121 50.9834 163.191 62.9102C171.262 74.837 175.615 88.8903 175.702 103.293C175.761 112.854 173.936 122.334 170.333 131.19C166.73 140.047 161.418 148.106 154.701 154.909C147.984 161.711 139.994 167.123 131.187 170.836C122.379 174.549 112.927 176.49 103.37 176.549V176.549Z" fill="#F9CC5D"/>
<path d="M132.019 107.973C129.861 105.134 126.578 102.931 122.17 101.366C124.721 99.9718 126.843 97.9074 128.307 95.3955C129.721 92.812 130.422 89.8985 130.339 86.9541C130.303 80.554 128.002 75.6938 123.436 72.3735C118.869 69.0532 112.278 67.411 103.661 67.4468H100.547C100.547 64.5511 100.529 61.6529 100.493 58.7522C100.493 56.0893 95.6611 56.12 95.6764 58.7522C95.6764 61.6529 95.7148 64.5537 95.7301 67.4468H92.6006C92.6006 64.546 92.5827 61.6478 92.5469 58.7522C92.5469 56.0816 87.7068 56.1123 87.7222 58.7522C87.7222 61.6529 87.74 64.5537 87.7758 67.4545L75.1273 67.5312C74.5484 67.494 73.9681 67.5771 73.4229 67.7752C72.8777 67.9733 72.3794 68.2822 71.9594 68.6823C71.5723 69.1304 71.2775 69.6505 71.0919 70.2128C70.9063 70.7751 70.8336 71.3686 70.8778 71.9591C70.8778 73.6269 71.3329 74.7755 72.2432 75.4047C73.1406 76.0263 75.1579 76.3333 78.2952 76.3103H80.3125L80.65 131.394H78.6327C75.2474 131.394 73.1099 131.704 72.2201 132.323C71.3304 132.942 70.8881 134.055 70.8932 135.661C70.8115 136.861 71.2024 138.045 71.9824 138.961C72.417 139.349 72.9262 139.644 73.4787 139.829C74.0313 140.014 74.6157 140.084 75.1963 140.035L88.2361 139.958L88.2821 148.653C88.2821 151.316 93.1222 151.293 93.1068 148.653C93.1068 145.763 93.0889 142.864 93.0531 139.958H96.1827C96.1827 142.854 96.2006 145.752 96.2364 148.653C96.2364 151.316 101.076 151.285 101.061 148.653C101.061 145.752 101.023 142.859 101.007 139.958H102.595H107.849C111.335 139.99 114.815 139.687 118.243 139.053C120.577 138.566 122.821 137.717 124.893 136.536C128.066 134.711 130.722 132.107 132.61 128.969C134.424 125.892 135.353 122.373 135.294 118.801C135.294 114.427 134.203 110.818 132.019 107.973ZM105.096 76.2182C109.821 76.1875 113.451 77.134 115.988 79.0576C118.524 80.9812 119.803 83.7541 119.823 87.3762C119.854 91.2132 118.478 94.0551 115.696 95.902C112.915 97.7489 108.632 98.6928 102.848 98.7337H100.777L100.639 76.2412L105.096 76.2182ZM95.8145 76.2719L95.9526 98.7721H92.8153L92.6773 76.2719H95.8145ZM93.0148 131.379C92.9585 123.024 92.9074 114.67 92.8614 106.316H95.9986C96.0446 114.67 96.0932 123.027 96.1443 131.387L93.0148 131.379ZM120.015 128.309C116.906 130.269 111.516 131.269 103.845 131.31H100.977L100.823 106.239H104.306C111.838 106.193 117.11 107.119 120.122 109.017C123.134 110.915 124.65 114.125 124.671 118.648C124.686 123.134 123.134 126.355 120.015 128.309Z" fill="#F9CC5D"/>
<path d="M23.6671 202.886C20.2231 227.765 27.1188 252.529 43.0811 272.619C51.5549 283.297 62.1614 292.089 74.2231 298.435C82.4028 302.751 91.1331 305.929 100.172 307.881L93.6678 324.388L91.8345 328.993L96.2527 326.69L131.376 308.273L133.677 307.06L131.759 305.272L102.765 278.198L98.9297 274.638L99.6277 279.81L101.683 294.889C82.5388 290.616 65.4354 279.91 53.2214 264.554C39.4759 247.257 33.539 225.977 36.5075 204.635L36.7606 202.794L34.9197 202.533L25.7688 201.266L25.0018 201.151L24.3728 201.642L23.7438 202.126L23.6671 202.886Z" fill="#474EBB"/>
<path d="M303.584 139.122C307.028 114.243 300.132 89.4788 284.17 69.3883C275.696 58.7106 265.09 49.9183 253.028 43.5729C244.849 39.2616 236.118 36.091 227.079 34.1493L233.583 17.6425L235.409 13.0381L230.998 15.3403L195.875 33.7579L193.574 34.9704L195.492 36.7584L224.479 63.8323L228.314 67.393L227.608 62.2208L225.56 47.1413C244.721 51.4255 261.838 62.1413 274.068 77.5074C287.806 94.8046 293.743 116.085 290.782 137.426L290.529 139.268L292.37 139.521L301.521 140.795L302.288 140.91L302.909 140.419L303.538 139.928L303.584 139.122Z" fill="#7FC5A3"/>
</svg>
