<svg width="50" height="50" viewBox="0 0 50 50" fill="none" xmlns="http://www.w3.org/2000/svg">
<path d="M47.9173 33.271C47.9173 41.3335 41.3965 47.8543 33.334 47.8543L35.5215 44.2085" stroke="#13B0D6" stroke-width="1.5" stroke-linecap="round" stroke-linejoin="round"/>
<path d="M2.08398 16.6043C2.08398 8.54183 8.60482 2.021 16.6673 2.021L14.4798 5.66683" stroke="#13B0D6" stroke-width="1.5" stroke-linecap="round" stroke-linejoin="round"/>
<path d="M13.791 27.2294H19.6452C20.9369 27.2294 21.9994 28.396 21.9994 29.5835C21.9994 30.8752 20.9577 31.9377 19.6452 31.9377H13.791V27.2294Z" stroke="#13B0D6" stroke-width="1.5" stroke-miterlimit="10" stroke-linecap="round" stroke-linejoin="round"/>
<path d="M13.791 31.9376H20.4994C21.9785 31.9376 23.1869 32.9793 23.1869 34.2918C23.1869 35.5835 21.9785 36.646 20.4994 36.646H13.791V31.9376Z" stroke="#13B0D6" stroke-width="1.5" stroke-miterlimit="10" stroke-linecap="round" stroke-linejoin="round"/>
<path d="M17.541 36.6251V38.9584" stroke="#13B0D6" stroke-width="1.5" stroke-miterlimit="10" stroke-linecap="round" stroke-linejoin="round"/>
<path d="M17.541 24.896V27.2293" stroke="#13B0D6" stroke-width="1.5" stroke-miterlimit="10" stroke-linecap="round" stroke-linejoin="round"/>
<path d="M30.9368 31.9378C30.9368 39.0419 25.1869 44.7919 18.0827 44.7919C10.9785 44.7919 5.22852 39.0419 5.22852 31.9378C5.22852 24.8336 10.9785 19.0835 18.0827 19.0835C18.416 19.0835 18.7285 19.1044 19.0827 19.1252C25.3952 19.6044 30.4369 24.646 30.916 30.9585C30.916 31.271 30.9368 31.5836 30.9368 31.9378Z" stroke="#13B0D6" stroke-width="1.5" stroke-miterlimit="10" stroke-linecap="round" stroke-linejoin="round"/>
<path d="M44.7904 18.0626C44.7904 25.1668 39.0404 30.9169 31.9362 30.9169H30.9154C30.4362 24.6044 25.3945 19.5626 19.082 19.0834V18.0626C19.082 10.9585 24.832 5.2085 31.9362 5.2085C39.0404 5.2085 44.7904 10.9585 44.7904 18.0626Z" stroke="#13B0D6" stroke-width="1.5" stroke-miterlimit="10" stroke-linecap="round" stroke-linejoin="round"/>
</svg>
