<svg width="50" height="50" viewBox="0 0 50 50" fill="none" xmlns="http://www.w3.org/2000/svg">
<path d="M35.4173 6.25H14.584C11.0423 6.25 8.33398 8.95833 8.33398 12.5V14.1667C8.33398 15.8333 8.12565 17.2917 7.50065 18.9583C6.87565 21.25 4.58398 22.9167 2.08398 22.9167V27.0833C4.58398 27.0833 6.87565 28.75 7.50065 31.0417C8.12565 32.5 8.33398 34.1667 8.33398 35.8333V37.5C8.33398 41.0417 11.0423 43.75 14.584 43.75H35.4173C38.959 43.75 41.6673 41.0417 41.6673 37.5V35.8333C41.6673 34.1667 41.8756 32.7083 42.5006 31.0417C43.334 28.75 45.4173 27.0833 47.9173 27.0833V22.9167C45.4173 22.9167 43.1256 21.25 42.5006 18.9583C41.8756 17.5 41.6673 15.8333 41.6673 14.1667V12.5C41.6673 8.95833 38.959 6.25 35.4173 6.25Z" stroke="#00C4F4" stroke-width="1.5" stroke-miterlimit="10" stroke-linejoin="round"/>
<path d="M20.416 25H26.4577C28.9577 25 30.8327 26.875 30.8327 29.375C30.8327 31.875 28.9577 33.75 26.4577 33.75H20.416V16.25H26.4577C28.9577 16.25 30.8327 18.125 30.8327 20.625C30.8327 23.125 28.9577 25 26.4577 25H20.416Z" stroke="#00C4F4" stroke-width="1.5" stroke-miterlimit="10" stroke-linecap="round" stroke-linejoin="round"/>
</svg>
