<svg width="90" height="90" viewBox="0 0 90 90" fill="none" xmlns="http://www.w3.org/2000/svg">
<path d="M18.45 76.0504L25.0875 81.1879C25.95 82.0504 27.8625 82.4628 29.175 82.4628H37.3124C39.8999 82.4628 42.675 80.5505 43.3125 77.963L48.45 62.3253C49.5375 59.3253 47.5875 56.7378 44.3625 56.7378H35.775C34.5 56.7378 33.4125 55.6501 33.6375 54.1501L34.725 47.2878C35.1375 45.3753 33.8624 43.2002 31.9499 42.5627C30.2249 41.9252 28.0875 42.7878 27.225 44.0628L18.45 57.1503" stroke="#00C4F4" stroke-width="1.5" stroke-miterlimit="10"/>
<path d="M7.49878 76.0506V55.0507C7.49878 52.0507 8.77378 50.9629 11.7738 50.9629H13.9113C16.9113 50.9629 18.1863 52.0507 18.1863 55.0507V76.0506C18.1863 79.0506 16.9113 80.138 13.9113 80.138H11.7738C8.77378 80.138 7.49878 79.0881 7.49878 76.0506Z" stroke="#00C4F4" stroke-width="1.5" stroke-linecap="round" stroke-linejoin="round"/>
<path d="M71.5484 13.95L64.9109 8.81247C64.0484 7.94997 62.1359 7.5376 60.8234 7.5376H52.6859C50.0984 7.5376 47.3234 9.44991 46.6859 12.0374L41.5484 27.6751C40.4609 30.6751 42.4109 33.2625 45.6359 33.2625H54.2234C55.4984 33.2625 56.5859 34.3503 56.3609 35.8503L55.2734 42.7126C54.8609 44.6251 56.1359 46.8002 58.0484 47.4377C59.7734 48.0752 61.9109 47.2126 62.7734 45.9376L71.5484 32.8501" stroke="#00C4F4" stroke-width="1.5" stroke-miterlimit="10"/>
<path d="M82.4978 13.9507V34.9506C82.4978 37.9506 81.2228 39.0384 78.2228 39.0384H76.0853C73.0853 39.0384 71.8103 37.9506 71.8103 34.9506V13.9507C71.8103 10.9507 73.0853 9.86328 76.0853 9.86328H78.2228C81.2228 9.86328 82.4978 10.9132 82.4978 13.9507Z" stroke="#00C4F4" stroke-width="1.5" stroke-linecap="round" stroke-linejoin="round"/>
</svg>
