<svg width="50" height="50" viewBox="0 0 50 50" fill="none" xmlns="http://www.w3.org/2000/svg">
<path d="M40.2083 16.5001V27.2293C40.2083 33.646 36.5417 36.3959 31.0417 36.3959H12.7292C11.7917 36.3959 10.8958 36.3127 10.0625 36.1252C9.54166 36.0418 9.04167 35.896 8.58334 35.7293C5.45834 34.5627 3.5625 31.8543 3.5625 27.2293V16.5001C3.5625 10.0834 7.22915 7.3335 12.7292 7.3335H31.0417C35.7083 7.3335 39.0625 9.31265 39.9583 13.8335C40.1042 14.6668 40.2083 15.5209 40.2083 16.5001Z" stroke="#00C4F4" stroke-width="1.5" stroke-miterlimit="10" stroke-linecap="round" stroke-linejoin="round"/>
<path d="M46.4603 22.7506V33.4798C46.4603 39.8965 42.7936 42.6464 37.2936 42.6464H18.9811C17.4395 42.6464 16.0436 42.4382 14.8353 41.9798C12.3561 41.0632 10.6686 39.1673 10.0645 36.1257C10.8978 36.3132 11.7936 36.3964 12.7311 36.3964H31.0436C36.5436 36.3964 40.2103 33.6465 40.2103 27.2298V16.5006C40.2103 15.5214 40.127 14.6465 39.9603 13.834C43.9186 14.6673 46.4603 17.4589 46.4603 22.7506Z" stroke="#00C4F4" stroke-width="1.5" stroke-miterlimit="10" stroke-linecap="round" stroke-linejoin="round"/>
<path d="M21.8711 27.3751C24.9087 27.3751 27.3712 24.9126 27.3712 21.875C27.3712 18.8375 24.9087 16.375 21.8711 16.375C18.8336 16.375 16.3711 18.8375 16.3711 21.875C16.3711 24.9126 18.8336 27.3751 21.8711 27.3751Z" stroke="#00C4F4" stroke-width="1.5" stroke-miterlimit="10" stroke-linecap="round" stroke-linejoin="round"/>
<path d="M9.95898 17.292V26.4587" stroke="#00C4F4" stroke-width="1.5" stroke-miterlimit="10" stroke-linecap="round" stroke-linejoin="round"/>
<path d="M33.7949 17.2925V26.4592" stroke="#00C4F4" stroke-width="1.5" stroke-miterlimit="10" stroke-linecap="round" stroke-linejoin="round"/>
</svg>
