<svg width="90" height="90" viewBox="0 0 90 90" fill="none" xmlns="http://www.w3.org/2000/svg">
<path d="M20.5517 69.337V58.3871C20.5517 54.7496 23.4017 51.487 27.4517 51.487C31.0892 51.487 34.3516 54.3371 34.3516 58.3871V68.9246C34.3516 76.2371 28.2766 82.3121 20.9641 82.3121C13.6516 82.3121 7.57659 76.1996 7.57659 68.9246V45.8245C7.16409 24.7495 23.8141 7.68701 44.8891 7.68701C65.9641 7.68701 82.5766 24.7495 82.5766 45.412V68.5121C82.5766 75.8246 76.5017 81.8997 69.1892 81.8997C61.8767 81.8997 55.8017 75.8246 55.8017 68.5121V57.9746C55.8017 54.3371 58.6516 51.0745 62.7016 51.0745C66.3391 51.0745 69.6016 53.9246 69.6016 57.9746V69.337" stroke="#00C4F4" stroke-width="1.5" stroke-linecap="round" stroke-linejoin="round"/>
<path d="M58.2375 34.199H55.2C54.375 34.199 53.5875 34.6865 53.2125 35.399L50.4 41.024C49.9875 41.849 48.825 41.849 48.4125 41.024L41.5125 27.2616C41.1 26.4741 39.975 26.4365 39.5625 27.224L36.4125 33.0365C36.0375 33.749 35.2875 34.199 34.4625 34.199H31.725" stroke="#00C4F4" stroke-width="1.5" stroke-linecap="round" stroke-linejoin="round"/>
</svg>
