<svg width="51" height="51" viewBox="0 0 51 51" fill="none" xmlns="http://www.w3.org/2000/svg">
<path d="M25.5001 33.6908C30.2884 33.6908 34.1701 30.0237 34.1701 25.5002C34.1701 20.9766 30.2884 17.3096 25.5001 17.3096C20.7118 17.3096 16.8301 20.9766 16.8301 25.5002C16.8301 30.0237 20.7118 33.6908 25.5001 33.6908Z" stroke="#0091DE" stroke-width="0.8" stroke-miterlimit="10"/>
<path d="M25.5012 34.1493C31.0895 34.1493 35.6196 30.2768 35.6196 25.4997C35.6196 20.7226 31.0895 16.8501 25.5012 16.8501C19.913 16.8501 15.3828 20.7226 15.3828 25.4997C15.3828 30.2768 19.913 34.1493 25.5012 34.1493Z" stroke="#0091DE" stroke-width="0.8" stroke-miterlimit="10"/>
<path d="M25.5004 34.6088C31.8886 34.6088 37.0672 30.5307 37.0672 25.5002C37.0672 20.4697 31.8886 16.3916 25.5004 16.3916C19.1122 16.3916 13.9336 20.4697 13.9336 25.5002C13.9336 30.5307 19.1122 34.6088 25.5004 34.6088Z" stroke="#0091DE" stroke-width="0.8" stroke-miterlimit="10"/>
<path d="M25.4996 35.0678C32.6876 35.0678 38.5148 30.7842 38.5148 25.5002C38.5148 20.2162 32.6876 15.9326 25.4996 15.9326C18.3114 15.9326 12.4844 20.2162 12.4844 25.5002C12.4844 30.7842 18.3114 35.0678 25.4996 35.0678Z" stroke="#0091DE" stroke-width="0.8" stroke-miterlimit="10"/>
<path d="M25.5004 35.5263C33.4828 35.5263 39.9538 31.0373 39.9538 25.4997C39.9538 19.9622 33.4828 15.4731 25.5004 15.4731C17.518 15.4731 11.047 19.9622 11.047 25.4997C11.047 31.0373 17.518 35.5263 25.5004 35.5263Z" stroke="#0091DE" stroke-width="0.8" stroke-miterlimit="10"/>
<path d="M25.5014 35.9854C34.2837 35.9854 41.4032 31.2908 41.4032 25.4998C41.4032 19.7087 34.2837 15.0142 25.5014 15.0142C16.7191 15.0142 9.59961 19.7087 9.59961 25.4998C9.59961 31.2908 16.7191 35.9854 25.5014 35.9854Z" stroke="#0091DE" stroke-width="0.8" stroke-miterlimit="10"/>
<path d="M25.5006 36.4342C35.0829 36.4342 42.8508 31.5387 42.8508 25.4998C42.8508 19.4609 35.0829 14.5654 25.5006 14.5654C15.9183 14.5654 8.15039 19.4609 8.15039 25.4998C8.15039 31.5387 15.9183 36.4342 25.5006 36.4342Z" stroke="#0091DE" stroke-width="0.8" stroke-miterlimit="10"/>
<path d="M25.4998 36.8932C35.8819 36.8932 44.2984 31.7922 44.2984 25.4998C44.2984 19.2075 35.8819 14.1064 25.4998 14.1064C15.1176 14.1064 6.70117 19.2075 6.70117 25.4998C6.70117 31.7922 15.1176 36.8932 25.4998 36.8932Z" stroke="#0091DE" stroke-width="0.8" stroke-miterlimit="10"/>
<path d="M25.5009 37.3523C36.683 37.3523 45.7479 32.0457 45.7479 25.4999C45.7479 18.9539 36.683 13.6475 25.5009 13.6475C14.3188 13.6475 5.25391 18.9539 5.25391 25.4999C5.25391 32.0457 14.3188 37.3523 25.5009 37.3523Z" stroke="#0091DE" stroke-width="0.8" stroke-miterlimit="10"/>
<path d="M25.5001 37.8113C37.4821 37.8113 47.1955 32.2993 47.1955 25.4999C47.1955 18.7006 37.4821 13.1885 25.5001 13.1885C13.5181 13.1885 3.80469 18.7006 3.80469 25.4999C3.80469 32.2993 13.5181 37.8113 25.5001 37.8113Z" stroke="#0091DE" stroke-width="0.8" stroke-miterlimit="10"/>
<path d="M25.4993 38.2703C38.2812 38.2703 48.6431 32.5528 48.6431 25.4999C48.6431 18.447 38.2812 12.7295 25.4993 12.7295C12.7173 12.7295 2.35547 18.447 2.35547 25.4999C2.35547 32.5528 12.7173 38.2703 25.4993 38.2703Z" stroke="#0091DE" stroke-width="0.8" stroke-miterlimit="10"/>
<path d="M25.4999 38.7293C39.0762 38.7293 50.0819 32.8064 50.0819 25.4999C50.0819 18.1935 39.0762 12.2705 25.4999 12.2705C11.9237 12.2705 0.917969 18.1935 0.917969 25.4999C0.917969 32.8064 11.9237 38.7293 25.4999 38.7293Z" stroke="#0091DE" stroke-width="0.8" stroke-miterlimit="10"/>
</svg>
