<svg width="90" height="90" viewBox="0 0 90 90" fill="none" xmlns="http://www.w3.org/2000/svg">
<path d="M45.6001 40.7625C45.2251 40.725 44.7751 40.725 44.3626 40.7625C35.4376 40.4625 28.3501 33.15 28.3501 24.15C28.3501 14.9625 35.7751 7.5 45.0001 7.5C54.1876 7.5 61.6501 14.9625 61.6501 24.15C61.6126 33.15 54.5251 40.4625 45.6001 40.7625Z" stroke="#00C4F4" stroke-width="1.5" stroke-linecap="round" stroke-linejoin="round"/>
<path d="M26.8487 54.6002C17.7737 60.6752 17.7737 70.5752 26.8487 76.6127C37.1612 83.5127 54.0737 83.5127 64.3862 76.6127C73.4612 70.5377 73.4612 60.6377 64.3862 54.6002C54.1112 47.7377 37.1987 47.7377 26.8487 54.6002Z" stroke="#00C4F4" stroke-width="1.5" stroke-linecap="round" stroke-linejoin="round"/>
</svg>
