<svg width="90" height="90" viewBox="0 0 90 90" fill="none" xmlns="http://www.w3.org/2000/svg">
<path d="M51.4858 13.1624L58.0858 26.3624C58.9858 28.1999 61.3858 29.9624 63.4108 30.2999L75.3733 32.2874C83.0233 33.5624 84.8233 39.1124 79.3108 44.5874L70.0108 53.8874C68.4358 55.4624 67.5733 58.4999 68.0608 60.6749L70.7233 72.1874C72.8233 81.2999 67.9858 84.8249 59.9233 80.0624L48.7108 73.4249C46.6858 72.2249 43.3483 72.2249 41.2858 73.4249L30.0733 80.0624C22.0483 84.8249 17.1733 81.2624 19.2733 72.1874L21.9358 60.6749C22.4233 58.4999 21.5608 55.4624 19.9858 53.8874L10.6858 44.5874C5.21082 39.1124 6.97332 33.5624 14.6233 32.2874L26.5858 30.2999C28.5733 29.9624 30.9733 28.1999 31.8733 26.3624L38.4733 13.1624C42.0733 5.9999 47.9233 5.9999 51.4858 13.1624Z" stroke="#00C4F4" stroke-width="1.5" stroke-linecap="round" stroke-linejoin="round"/>
</svg>
