<svg width="50" height="50" viewBox="0 0 50 50" fill="none" xmlns="http://www.w3.org/2000/svg">
<path d="M35.416 45.8335H14.5827C6.24935 45.8335 4.16602 43.7502 4.16602 35.4168V31.2502C4.16602 22.9168 6.24935 20.8335 14.5827 20.8335H35.416C43.7494 20.8335 45.8327 22.9168 45.8327 31.2502V35.4168C45.8327 43.7502 43.7494 45.8335 35.416 45.8335Z" stroke="#00C4F4" stroke-width="1.5" stroke-linecap="round" stroke-linejoin="round"/>
<path d="M12.5 20.8333V16.6666C12.5 9.77079 14.5833 4.16663 25 4.16663C34.375 4.16663 37.5 8.33329 37.5 14.5833" stroke="#00C4F4" stroke-width="1.5" stroke-linecap="round" stroke-linejoin="round"/>
<path d="M24.9993 38.5417C27.8758 38.5417 30.2077 36.2098 30.2077 33.3333C30.2077 30.4569 27.8758 28.125 24.9993 28.125C22.1229 28.125 19.791 30.4569 19.791 33.3333C19.791 36.2098 22.1229 38.5417 24.9993 38.5417Z" stroke="#00C4F4" stroke-width="1.5" stroke-linecap="round" stroke-linejoin="round"/>
</svg>
